<?xml version="1.0" standalone="no"?>
<!DOCTYPE svg PUBLIC "-//W3C//DTD SVG 20010904//EN"
 "http://www.w3.org/TR/2001/REC-SVG-20010904/DTD/svg10.dtd">
<svg version="1.0" xmlns="http://www.w3.org/2000/svg"
 width="2045.000000pt" height="2044.000000pt" viewBox="0 0 2045.000000 2044.000000"
 preserveAspectRatio="xMidYMid meet">

<g transform="translate(0.000000,2044.000000) scale(0.100000,-0.100000)"
fill="#000000" stroke="none">
<path d="M2710 20429 c-19 -6 -100 -27 -180 -49 -903 -243 -1695 -726 -2175
-1325 -133 -166 -267 -403 -300 -530 -20 -79 -20 -174 1 -204 15 -20 23 -23
69 -19 127 11 501 236 1090 658 240 172 331 231 475 307 502 264 1158 438
1925 509 240 23 917 26 1160 6 1058 -88 1884 -380 2244 -793 208 -240 254
-490 137 -744 -185 -400 -733 -851 -1626 -1340 -527 -288 -1166 -583 -1840
-850 -369 -146 -798 -300 -808 -291 -6 7 93 183 304 536 437 734 1032 1596
1692 2450 55 72 54 104 -3 134 -36 19 -57 21 -200 21 -164 0 -221 -8 -400 -52
-292 -72 -537 -189 -699 -334 -131 -118 -636 -824 -948 -1324 -145 -232 -320
-529 -443 -750 -15 -27 -42 -75 -59 -105 -16 -30 -130 -253 -251 -495 l-221
-440 -49 -9 c-28 -4 -161 -30 -297 -57 -532 -104 -878 -210 -1038 -319 -159
-108 -186 -268 -59 -356 131 -91 453 -129 872 -104 114 7 210 10 213 7 3 -3
-13 -54 -36 -113 -464 -1221 -759 -2466 -875 -3694 -74 -787 -82 -1575 -19
-2130 73 -654 238 -1092 433 -1151 117 -35 210 67 276 303 l27 97 -16 163
c-44 447 -56 698 -56 1158 0 866 84 1637 276 2524 204 944 559 1983 992 2907
l49 106 84 17 c1319 277 2483 654 3384 1096 818 400 1397 829 1796 1330 134
168 285 441 353 636 208 605 67 1211 -412 1767 -143 166 -370 353 -593 488
-194 117 -503 252 -758 333 l-114 36 -1671 -1 c-1021 0 -1685 -4 -1706 -10z"/>
<path d="M12224 19576 c-550 -143 -1278 -814 -2081 -1921 -142 -197 -181 -251
-321 -462 -733 -1097 -1361 -2303 -1720 -3304 -128 -356 -205 -636 -258 -939
-25 -138 -30 -434 -10 -568 70 -476 309 -738 750 -819 125 -24 448 -23 602 0
340 52 735 197 1224 449 240 124 648 357 719 410 13 10 29 18 35 18 7 0 22
-32 35 -71 104 -324 355 -510 769 -571 115 -17 620 -17 767 0 298 35 601 109
900 221 531 199 1122 538 1585 907 168 134 177 146 191 256 5 38 22 114 39
167 18 59 30 120 30 154 0 56 -41 230 -66 278 -19 38 -68 76 -114 90 -35 11
-44 9 -92 -15 -29 -15 -123 -77 -208 -137 -559 -398 -938 -623 -1333 -790
-425 -180 -782 -262 -1152 -261 -270 0 -391 37 -442 135 -37 71 -34 211 7 372
22 84 165 389 179 380 5 -2 11 -25 14 -50 6 -56 52 -127 110 -171 155 -118
489 -132 824 -35 638 184 1317 741 1608 1321 109 217 150 390 142 590 -16 388
-206 639 -560 736 -138 38 -348 44 -517 15 -363 -62 -804 -287 -1220 -622
-347 -279 -733 -690 -996 -1059 -162 -228 -328 -516 -405 -703 -23 -58 -25
-60 -224 -201 -618 -440 -1095 -706 -1499 -835 -169 -54 -275 -74 -391 -75
-92 -1 -104 1 -147 27 -124 72 -188 245 -174 464 10 153 75 485 107 544 5 9
46 37 92 62 168 89 484 297 661 436 304 239 559 465 852 756 414 412 849 913
1176 1355 573 773 994 1505 1201 2085 133 373 194 722 158 907 -21 103 -93
229 -173 304 -183 169 -432 232 -674 170z m-74 -1008 c0 -48 -274 -578 -533
-1028 -433 -754 -966 -1485 -1452 -1990 -236 -245 -588 -570 -603 -555 -12 12
353 658 591 1044 66 108 138 225 160 261 121 196 509 772 691 1025 521 724
1006 1275 1123 1275 19 0 23 -5 23 -32z m1990 -3468 c13 -21 -20 -98 -81 -186
-66 -97 -339 -374 -504 -511 -346 -288 -693 -508 -880 -557 -66 -17 -226 -39
-233 -31 -10 10 366 432 417 467 10 7 56 48 102 92 348 325 818 664 1029 740
30 11 141 0 150 -14z"/>
<path d="M7095 15764 c-125 -44 -281 -130 -643 -357 -197 -123 -402 -248 -457
-279 -579 -323 -625 -352 -731 -450 -81 -77 -108 -125 -108 -198 0 -44 6 -66
32 -112 60 -104 119 -138 241 -138 209 0 484 133 1091 525 347 225 376 239
398 204 6 -10 16 -67 22 -127 17 -186 51 -256 144 -301 123 -60 228 4 315 191
74 158 111 341 111 551 0 230 -64 402 -182 487 -35 26 -50 30 -102 30 -39 -1
-87 -10 -131 -26z"/>
<path d="M5950 14034 c-224 -29 -553 -121 -690 -194 -13 -7 -28 -5 -51 8 -24
12 -57 17 -111 17 -74 -1 -81 -3 -200 -62 -304 -153 -726 -411 -1018 -622
-230 -166 -398 -307 -565 -476 -307 -309 -490 -615 -550 -920 -27 -136 -18
-373 19 -515 107 -409 399 -675 848 -771 135 -29 429 -36 611 -15 709 83 1550
410 2252 875 642 425 1047 889 1125 1289 18 90 7 324 -19 425 -126 478 -511
816 -1072 939 -76 16 -137 21 -319 23 -124 2 -241 1 -260 -1z m609 -840 c181
-39 277 -119 256 -217 -68 -311 -975 -926 -1950 -1322 -528 -214 -967 -304
-1178 -243 -77 23 -97 90 -53 183 72 156 433 528 861 890 396 335 499 415 602
470 48 26 117 65 152 87 l63 39 43 -17 c59 -22 123 -16 345 35 540 122 663
136 859 95z"/>
<path d="M13070 10480 c-622 -17 -1285 -61 -1970 -130 -1051 -106 -2380 -346
-3425 -619 -778 -204 -1572 -455 -2246 -711 -598 -228 -1039 -415 -1609 -682
-257 -121 -770 -380 -935 -473 -22 -12 -67 -37 -100 -55 -800 -435 -1624 -973
-2235 -1459 -311 -247 -470 -453 -470 -609 0 -149 125 -121 405 91 316 239
585 426 895 622 85 54 171 108 190 120 145 92 510 302 748 429 75 40 155 84
177 96 47 27 710 358 775 388 25 11 90 41 145 67 226 105 492 223 675 300 74
31 160 67 190 80 120 52 617 247 815 320 734 271 1481 510 2235 715 116 31
654 166 755 189 50 12 140 32 200 46 1058 245 2244 429 3345 520 711 58 1021
70 1815 70 776 0 1139 -14 1775 -70 218 -19 343 -19 411 1 133 39 236 122 287
232 26 55 27 64 27 227 0 247 -6 256 -160 238 -49 -6 -123 -7 -181 -2 -609 50
-1835 78 -2534 59z"/>
<path d="M16945 8090 c-306 -24 -526 -136 -622 -315 -51 -96 -54 -143 -51
-640 4 -512 4 -508 86 -617 135 -178 379 -268 727 -268 475 0 753 162 829 483
l6 27 -129 0 -129 0 -6 -34 c-12 -62 -65 -154 -117 -200 -57 -52 -125 -86
-219 -112 -95 -26 -368 -26 -465 0 -157 41 -262 122 -307 235 -22 55 -23 67
-26 479 -4 442 1 522 37 596 48 99 164 178 308 210 95 21 308 21 410 0 194
-40 325 -155 352 -308 l7 -41 128 -3 129 -3 -7 41 c-32 201 -186 354 -428 424
-149 43 -335 60 -513 46z"/>
<path d="M7203 8062 l-653 -2 0 -890 0 -890 130 0 130 0 0 405 0 405 505 0
505 0 0 70 0 70 -505 0 -505 0 0 345 0 345 538 0 c296 0 541 2 543 4 2 2 3 35
1 73 -3 57 -6 69 -20 68 -9 0 -311 -1 -669 -3z"/>
<path d="M13738 8062 c-90 -2 -107 -5 -110 -19 -2 -9 -2 -409 0 -890 l2 -873
131 0 131 0 -6 663 c-4 364 -9 697 -12 740 -3 42 -2 77 3 77 4 0 23 -26 42
-56 79 -131 339 -479 774 -1034 24 -30 101 -130 173 -222 l129 -168 138 0 137
0 0 888 c0 489 -2 891 -4 893 -2 2 -61 3 -130 1 l-126 -3 0 -563 c0 -502 6
-714 26 -868 3 -27 2 -48 -3 -47 -4 0 -53 64 -108 141 -55 78 -143 197 -195
264 -313 403 -784 1015 -825 1072 -4 5 -66 7 -167 4z"/>
<path d="M18824 8061 c-2 -2 -4 -404 -4 -893 l0 -888 720 0 720 0 0 70 0 70
-585 2 -585 3 -3 342 -2 343 525 2 525 3 0 70 0 70 -523 5 -522 5 -3 328 -2
327 563 0 563 0 -3 70 -3 70 -688 3 c-379 1 -691 0 -693 -2z"/>
<path d="M8760 7171 l1 -891 134 0 135 0 0 350 0 350 163 0 162 -1 355 -349
355 -349 155 0 155 0 -24 20 c-13 11 -144 136 -290 277 -146 142 -299 289
-338 327 -40 38 -73 72 -73 75 0 4 43 14 96 23 411 73 631 364 524 692 -53
162 -210 275 -469 337 -79 20 -123 21 -563 25 l-478 4 0 -890z m948 720 c110
-28 178 -63 233 -122 78 -82 108 -220 75 -344 -38 -144 -134 -226 -324 -277
-67 -18 -115 -21 -369 -25 l-293 -5 0 402 0 402 298 -5 c260 -4 307 -7 380
-26z"/>
<path d="M11742 8043 c-6 -10 -30 -65 -55 -123 -25 -58 -120 -276 -212 -485
-92 -209 -198 -452 -237 -540 -38 -88 -78 -178 -88 -200 -16 -38 -79 -181
-148 -340 l-31 -70 136 -3 c98 -2 139 1 144 9 4 7 44 102 89 211 l82 198 472
0 473 0 41 -97 c22 -54 62 -149 87 -210 l47 -113 139 0 c76 0 139 2 139 3 0 2
-29 69 -64 148 -151 343 -325 739 -469 1069 -86 195 -175 400 -200 455 l-45
100 -145 3 c-131 2 -147 1 -155 -15z m193 -286 c18 -52 53 -144 79 -203 25
-60 101 -244 169 -409 l123 -300 -209 -3 c-114 -1 -300 -1 -411 0 l-203 3 92
220 c233 562 274 666 311 784 7 22 14 9 49 -92z"/>
<path d="M9895 5034 c-206 -43 -332 -132 -407 -284 -48 -97 -62 -176 -55 -298
6 -111 29 -184 89 -279 72 -114 179 -199 519 -413 104 -66 183 -141 215 -205
22 -47 26 -64 22 -122 -2 -38 -12 -85 -22 -105 -38 -79 -150 -127 -264 -114
-130 15 -204 89 -221 221 l-6 50 -187 3 -188 2 0 -57 c0 -115 37 -231 106
-335 73 -110 185 -185 334 -225 92 -24 300 -24 395 1 93 24 212 87 268 141
227 217 236 606 19 846 -74 81 -181 160 -367 270 -174 102 -257 166 -300 229
-25 37 -30 57 -33 115 -2 53 1 78 15 104 44 84 148 124 259 101 77 -16 134
-70 158 -149 9 -30 16 -63 16 -73 0 -17 13 -18 191 -18 l192 0 -7 63 c-21 204
-111 364 -255 451 -31 19 -96 46 -145 60 -74 22 -107 26 -205 25 -64 -1 -125
-3 -136 -5z"/>
<path d="M7 3947 l2 -1052 183 0 183 0 3 351 2 351 183 6 c275 8 387 47 523
182 77 76 127 165 161 285 28 102 25 368 -5 473 -70 244 -227 390 -474 442
-53 12 -150 15 -416 15 l-347 0 2 -1053z m692 687 c116 -34 179 -133 188 -296
10 -151 -21 -253 -96 -321 -58 -52 -119 -67 -278 -67 l-133 0 0 350 0 350 133
0 c92 0 150 -5 186 -16z"/>
<path d="M1646 4533 c-63 -258 -179 -724 -256 -1038 -77 -313 -143 -578 -146
-588 -5 -16 7 -17 188 -15 l193 3 24 100 c13 55 33 141 45 190 l21 90 247 3
248 2 5 -22 c3 -13 22 -99 43 -193 l38 -170 192 -3 c127 -2 192 1 192 8 0 9
-94 391 -479 1940 l-38 155 -201 3 -200 2 -116 -467z m324 -15 c0 -67 91 -564
144 -788 26 -109 40 -100 -154 -100 -93 0 -170 2 -170 4 0 2 16 73 35 158 45
204 89 442 111 606 10 72 22 132 26 132 4 0 8 -6 8 -12z"/>
<path d="M2900 3945 l0 -1055 185 0 185 0 0 370 0 370 84 0 85 0 95 -182 c52
-101 137 -266 190 -368 l95 -185 200 -3 c148 -2 201 1 201 9 0 7 -21 51 -47
98 -25 47 -61 113 -78 146 -18 33 -64 119 -102 190 -134 248 -183 343 -183
352 0 5 28 27 61 49 115 73 200 204 239 365 24 103 27 300 5 413 -35 186 -152
346 -305 419 -129 60 -185 67 -570 67 l-340 0 0 -1055z m705 678 c54 -29 100
-79 122 -133 14 -36 18 -72 18 -175 0 -114 -3 -136 -23 -180 -28 -60 -64 -100
-117 -128 -35 -19 -60 -22 -187 -25 l-148 -4 0 337 0 337 148 -4 c127 -3 152
-6 187 -25z"/>
<path d="M4791 4963 c-6 -21 -51 -204 -101 -408 -50 -203 -163 -660 -251
-1014 -87 -354 -159 -645 -159 -648 0 -2 87 -2 193 -1 l192 3 38 170 c21 94
42 180 47 193 10 22 10 22 249 22 178 0 242 -3 247 -12 5 -7 26 -94 48 -193
l41 -180 193 -3 c105 -1 192 0 192 3 0 4 -42 178 -94 388 -243 985 -418 1693
-421 1705 -3 9 -53 12 -204 12 l-200 0 -10 -37z m239 -590 c26 -181 54 -329
104 -561 20 -90 36 -167 36 -173 0 -5 -71 -9 -171 -9 l-171 0 5 28 c3 15 26
119 51 232 39 179 79 415 101 588 4 28 10 52 14 52 4 0 18 -71 31 -157z"/>
<path d="M6562 3948 l3 -1053 375 0 c360 0 378 1 453 23 97 28 157 58 224 114
145 121 211 291 201 512 -8 161 -72 292 -186 377 -31 24 -60 46 -65 49 -4 3
13 28 38 56 209 225 181 659 -54 851 -69 56 -110 77 -202 103 -68 18 -102 20
-431 20 l-358 0 2 -1052z m694 677 c27 -13 59 -39 71 -57 48 -71 55 -235 14
-316 -48 -94 -116 -122 -296 -122 l-105 0 0 260 0 260 133 0 c122 0 137 -2
183 -25z m27 -860 c100 -36 150 -115 155 -245 3 -77 1 -90 -25 -139 -56 -110
-132 -141 -345 -141 l-128 0 0 276 0 276 148 -4 c106 -4 160 -10 195 -23z"/>
<path d="M8385 4988 c-2 -7 -20 -78 -39 -158 -59 -243 -425 -1719 -451 -1821
-14 -53 -25 -101 -25 -108 0 -8 49 -11 192 -9 l193 3 40 180 c22 99 44 186 48
193 6 9 67 12 248 12 l239 0 9 -23 c5 -12 26 -100 46 -195 l38 -172 192 0 193
0 -14 63 c-7 34 -47 199 -89 367 -89 357 -261 1051 -346 1400 -33 135 -62 253
-65 263 -5 15 -24 17 -205 17 -151 0 -201 -3 -204 -12z m243 -680 c18 -115 52
-299 76 -410 24 -112 47 -218 51 -235 l7 -33 -171 0 c-101 0 -171 4 -171 9 0
6 22 113 49 239 41 191 111 595 111 643 0 8 3 9 9 4 4 -6 22 -103 39 -217z"/>
<path d="M10920 3945 l0 -1055 183 2 182 3 5 335 5 335 61 93 61 94 88 -169
c48 -92 111 -213 140 -268 29 -55 87 -167 130 -250 43 -82 82 -156 88 -162 11
-16 417 -19 417 -4 0 5 -17 40 -39 78 -38 67 -528 949 -584 1052 -34 60 -36
50 38 166 18 28 114 183 215 345 100 162 205 330 231 372 27 42 49 79 49 82 0
4 -96 6 -212 6 l-213 0 -115 -202 c-63 -111 -130 -227 -149 -257 -18 -31 -74
-132 -122 -226 l-89 -170 0 428 0 427 -185 0 -185 0 0 -1055z"/>
<path d="M12470 3945 l0 -1055 548 2 547 3 3 173 2 172 -365 0 -365 0 0 275 0
275 318 2 317 3 3 168 2 167 -320 0 -320 0 0 260 0 260 348 2 347 3 3 173 2
172 -535 0 -535 0 0 -1055z"/>
<path d="M13730 4825 l0 -175 215 0 215 0 0 -880 0 -880 190 0 190 0 0 880 0
880 213 2 212 3 3 173 2 172 -620 0 -620 0 0 -175z"/>
<path d="M15192 3948 l3 -1053 375 0 c330 0 383 3 440 19 169 47 300 149 368
288 54 111 67 171 67 308 0 129 -21 210 -76 293 -29 45 -99 115 -154 154 l-29
21 50 55 c57 62 95 135 120 229 24 94 15 289 -18 379 -62 167 -168 274 -328
331 -63 22 -78 23 -443 26 l-377 3 2 -1053z m683 683 c83 -38 117 -105 118
-226 1 -105 -22 -172 -73 -219 -48 -43 -83 -51 -235 -51 l-120 0 -3 258 -2
257 137 0 c113 0 145 -4 178 -19z m0 -855 c137 -36 206 -146 192 -304 -8 -82
-43 -144 -104 -182 -62 -40 -128 -51 -274 -48 l-124 3 -3 260 c-1 143 0 265 3
272 6 18 243 17 310 -1z"/>
<path d="M16966 4803 c-26 -109 -142 -578 -257 -1042 -115 -464 -209 -850
-209 -857 0 -11 37 -14 190 -14 188 0 190 0 195 23 3 12 23 99 43 192 l37 170
250 0 249 0 22 -95 c12 -52 31 -139 43 -192 l22 -98 190 0 c161 0 189 2 189
15 0 15 -74 318 -371 1518 l-144 577 -200 0 -200 0 -49 -197z m289 -494 c27
-167 94 -510 129 -661 4 -17 -9 -18 -169 -18 l-173 0 25 113 c57 260 92 441
112 587 26 179 30 204 37 198 2 -3 20 -101 39 -219z"/>
<path d="M18152 3948 l3 -1053 518 -3 517 -2 0 175 0 175 -332 2 -333 3 -3
878 -2 877 -185 0 -185 0 2 -1052z"/>
<path d="M19410 3945 l0 -1055 515 0 515 0 0 175 0 175 -330 0 -330 0 0 880 0
880 -185 0 -185 0 0 -1055z"/>
<path d="M19747 2252 l-148 -3 -87 -63 c-146 -105 -292 -216 -292 -221 0 -3
53 -5 118 -5 l118 0 207 133 c113 72 214 137 224 143 10 7 16 13 13 15 -3 2
-72 3 -153 1z"/>
<path d="M7341 1758 c-10 -26 -186 -428 -336 -768 -18 -41 -120 -273 -225
-515 -106 -242 -197 -448 -202 -457 -8 -17 1 -18 136 -18 l144 0 26 68 c14 37
50 125 80 197 l55 130 453 3 c451 3 518 0 518 -19 0 -6 34 -93 76 -195 l77
-184 138 0 c77 0 139 4 139 9 0 8 -19 52 -70 166 -10 22 -57 128 -103 235 -47
107 -129 294 -182 415 -53 121 -117 267 -142 325 -25 58 -71 164 -103 235 -32
72 -84 190 -115 263 l-58 132 -149 0 c-145 0 -149 -1 -157 -22z m183 -245 c21
-68 257 -649 380 -935 l16 -38 -415 0 c-344 0 -415 2 -415 14 0 12 56 149 245
601 37 88 87 217 112 288 25 70 49 127 53 127 3 0 14 -26 24 -57z"/>
<path d="M9250 890 l0 -890 518 0 c481 0 523 2 597 20 175 43 347 157 408 267
54 100 57 131 57 578 0 255 -4 434 -11 471 -42 230 -256 378 -619 429 -85 11
-206 15 -530 15 l-420 0 0 -890z m980 710 c156 -41 251 -108 299 -210 l26 -55
3 -439 c3 -499 2 -509 -71 -598 -30 -37 -63 -62 -117 -90 -137 -70 -262 -88
-617 -88 l-233 0 0 756 0 756 313 -4 c284 -4 320 -7 397 -28z"/>
<path d="M12281 1753 c-7 -16 -108 -244 -223 -508 -115 -264 -227 -518 -248
-565 -21 -47 -77 -174 -125 -283 -47 -110 -104 -238 -125 -287 -22 -48 -40
-93 -40 -99 0 -8 43 -11 138 -11 l138 0 49 117 c26 65 62 152 79 193 16 41 35
78 40 82 6 4 223 8 482 8 l471 0 83 -200 84 -200 138 0 c76 0 138 4 138 8 0
11 -18 53 -420 967 -188 429 -344 786 -347 793 -4 9 -44 12 -152 12 l-148 0
-12 -27z m192 -266 c26 -75 111 -284 312 -767 l73 -175 -209 -3 c-115 -1 -303
-1 -418 0 l-209 3 50 120 c191 460 291 704 324 797 22 59 41 108 44 108 3 0
18 -37 33 -83z"/>
<path d="M14190 890 l0 -890 135 0 135 0 2 328 3 327 350 6 c309 5 361 8 445
27 136 31 246 76 322 132 127 93 187 208 195 375 6 109 -7 177 -52 265 -84
165 -295 277 -585 310 -47 5 -280 10 -517 10 l-433 0 0 -890z m996 717 c244
-64 353 -214 323 -446 -16 -134 -78 -223 -192 -279 -120 -59 -159 -65 -524
-69 l-333 -5 0 412 0 412 333 -5 c261 -3 345 -8 393 -20z"/>
<path d="M16400 1705 l0 -75 335 0 335 0 0 -815 0 -815 130 0 130 0 0 815 0
815 333 2 332 3 3 73 3 72 -801 0 -800 0 0 -75z"/>
<path d="M18840 890 l0 -890 724 0 724 0 6 33 c3 17 4 41 1 52 -2 11 -4 23 -4
28 -1 4 -266 7 -591 7 l-590 0 0 350 0 350 530 0 530 0 0 70 0 70 -527 2 -528
3 -3 338 -2 337 570 0 571 0 -3 68 -3 67 -702 3 -703 2 0 -890z"/>
</g>
</svg>
